<?xml version="1.0" standalone="no"?>
<!DOCTYPE svg PUBLIC "-//W3C//DTD SVG 20010904//EN"
 "http://www.w3.org/TR/2001/REC-SVG-20010904/DTD/svg10.dtd">
<svg version="1.0" xmlns="http://www.w3.org/2000/svg"
 width="279.000000pt" height="280.000000pt" viewBox="0 0 279.000000 280.000000"
 preserveAspectRatio="xMidYMid meet">

<g transform="translate(0.000000,280.000000) scale(0.100000,-0.100000)"
fill="#000000" stroke="none">
<path d="M610 2699 c-65 -9 -150 -40 -218 -77 -72 -40 -172 -146 -214 -228
-76 -144 -73 -106 -73 -984 0 -864 -2 -835 63 -970 48 -99 159 -213 253 -259
128 -63 135 -64 577 -68 l402 -5 0 451 0 451 -121 0 c-120 0 -121 0 -150 29
-22 23 -29 39 -29 69 0 34 16 60 150 238 l149 199 1 315 c0 274 3 326 20 403
48 217 160 351 353 423 l62 23 -585 -1 c-322 0 -610 -4 -640 -9z m254 -1049
c30 -12 73 -39 95 -60 35 -34 41 -46 41 -81 0 -32 -6 -47 -30 -71 -27 -27 -36
-30 -74 -26 -24 3 -57 16 -75 29 -43 32 -99 31 -142 0 -19 -15 -51 -26 -79
-29 -42 -4 -49 -1 -73 28 -42 50 -38 100 14 150 79 77 212 101 323 60z"/>
<path d="M1974 1656 c-90 -22 -174 -92 -174 -145 0 -36 27 -77 59 -91 37 -15
71 -7 120 26 21 14 50 24 71 24 21 0 50 -10 71 -24 49 -33 83 -41 120 -26 31
13 59 55 59 87 0 57 -83 127 -177 149 -69 16 -82 16 -149 0z"/>
</g>
</svg>
