<?xml version="1.0" standalone="no"?>
<!DOCTYPE svg PUBLIC "-//W3C//DTD SVG 20010904//EN"
 "http://www.w3.org/TR/2001/REC-SVG-20010904/DTD/svg10.dtd">
<svg version="1.0" xmlns="http://www.w3.org/2000/svg"
 width="622.000000pt" height="623.000000pt" viewBox="0 0 622.000000 623.000000"
 preserveAspectRatio="xMidYMid meet">

<g transform="translate(0.000000,623.000000) scale(0.100000,-0.100000)"
fill="#000000" stroke="none">
<path d="M3005 4836 c-259 -151 -469 -278 -469 -282 1 -4 215 -130 475 -279
l474 -271 3 -327 2 -327 390 0 389 0 86 50 85 51 -2 556 -3 556 -475 273
c-261 150 -477 273 -480 273 -3 1 -217 -122 -475 -273z"/>
<path d="M1902 4182 l-473 -277 1 -220 c0 -121 3 -246 7 -277 l6 -58 468 0
468 0 483 281 c266 155 484 282 485 283 4 3 -953 546 -962 545 -6 0 -223 -125
-483 -277z"/>
<path d="M2804 3100 c-11 -4 -27 -22 -34 -40 -16 -38 -4 -69 35 -97 72 -50 88
-69 81 -97 -10 -40 -50 -55 -88 -33 -38 22 -51 12 -19 -14 61 -50 156 9 137
85 -3 14 -31 44 -63 68 -63 48 -74 70 -47 99 19 21 45 24 74 9 13 -7 21 -7 25
0 7 11 -35 30 -63 29 -9 0 -26 -4 -38 -9z"/>
<path d="M3382 3090 c-19 -12 -41 -38 -52 -63 -62 -137 51 -278 166 -208 41
25 64 77 64 146 0 70 -21 112 -65 131 -47 19 -74 18 -113 -6z m110 -29 c28
-25 32 -35 35 -92 3 -51 0 -70 -16 -97 -53 -84 -142 -55 -165 55 -15 70 36
163 90 163 13 0 38 -13 56 -29z"/>
<path d="M3693 3096 c-69 -31 -98 -166 -50 -237 30 -44 63 -61 110 -55 115 13
160 198 69 279 -27 25 -89 31 -129 13z m107 -36 c79 -84 19 -268 -76 -235 -82
30 -100 188 -27 245 37 29 70 25 103 -10z"/>
<path d="M2078 2955 c2 -116 6 -145 17 -145 10 0 15 18 17 68 l3 67 43 3 c56
4 54 22 -4 22 l-45 0 3 53 3 52 48 3 c72 5 56 22 -20 22 l-68 0 3 -145z"/>
<path d="M2294 3078 c3 -13 6 -78 6 -145 0 -94 3 -123 13 -123 9 0 13 16 12
53 0 46 3 52 22 55 16 2 32 -10 63 -52 26 -34 50 -56 62 -56 16 0 12 8 -22 53
-22 30 -40 57 -40 61 0 5 11 21 25 38 27 32 31 54 14 91 -15 33 -49 47 -111
47 -47 0 -50 -1 -44 -22z m96 -8 c53 -29 44 -103 -14 -119 -19 -5 -36 -4 -43
2 -13 10 -18 83 -7 111 7 18 36 21 64 6z"/>
<path d="M2560 2955 l0 -145 70 0 c81 0 95 18 18 22 l-53 3 0 55 0 55 43 3
c56 4 54 22 -4 22 l-45 0 3 53 3 52 53 3 c77 4 63 22 -18 22 l-70 0 0 -145z"/>
<path d="M3000 2955 c0 -120 2 -145 15 -145 11 0 15 16 17 68 l3 67 80 0 80 0
3 -67 c2 -52 6 -68 17 -68 13 0 15 25 15 145 0 122 -2 145 -15 145 -12 0 -15
-14 -15 -65 l0 -65 -85 0 -85 0 0 65 c0 51 -3 65 -15 65 -13 0 -15 -23 -15
-145z"/>
<path d="M3950 2955 c0 -122 2 -145 15 -145 12 0 15 14 15 70 0 41 4 70 10 70
6 0 33 -31 61 -70 33 -45 58 -70 71 -70 23 0 21 3 -45 88 -55 70 -57 56 21
150 43 51 43 52 18 52 -14 0 -26 -5 -26 -11 0 -16 -83 -118 -97 -118 -9 -1
-13 18 -13 64 0 51 -3 65 -15 65 -13 0 -15 -23 -15 -145z"/>
<path d="M1861 2555 c14 -7 139 -79 277 -158 l252 -145 0 159 0 159 -277 0
c-243 -1 -275 -3 -252 -15z"/>
<path d="M2530 2376 l0 -195 474 -270 c260 -149 480 -271 488 -271 8 0 226
123 484 274 l469 273 3 192 2 191 -960 0 -960 0 0 -194z"/>
</g>
</svg>
